<svg xmlns="http://www.w3.org/2000/svg" xmlns:xlink="http://www.w3.org/1999/xlink" viewBox="0 0 108 108">
    <defs>
        <linearGradient id="VTGradient_Sign_Letter_Technology" gradientUnits="userSpaceOnUse" x1="72.927" y1="29.041" x2="58.927" y2="75.843">
            <stop offset="0" stop-color="#e5007e" />
            <stop offset="1" stop-color="#9d1980" />
        </linearGradient>
        <linearGradient id="VTGradient_Sign_Letter_Technology_shadow" gradientUnits="userSpaceOnUse" x1="51.156" y1="68.307" x2="61.87" y2="64.316">
            <stop offset="0" stop-opacity=".6" />
            <stop offset="1" stop-opacity="0" />
        </linearGradient>
        <linearGradient id="VTGradient_Sign_Letter_Technology_over" gradientUnits="userSpaceOnUse" x1="27.319" y1="29.321" x2="61.931" y2="86.207">
            <stop offset="0" stop-color="#ffcb00" />
            <stop offset=".241" stop-color="#f79505" />
            <stop offset=".608" stop-color="#ec490d" />
            <stop offset=".87" stop-color="#e51811" />
            <stop offset="1" stop-color="#e20613" />
        </linearGradient>
        <linearGradient id="VTGradient_Sign_Circle_Technology" gradientUnits="userSpaceOnUse" x1="21.161" y1="14.045" x2="85.5" y2="93.363">
            <stop offset="0" stop-color="#c7d306" />
            <stop offset="1" stop-color="#4cbcc7" />
        </linearGradient>

    </defs>
    <g>
        <path fill="url(#VTGradient_Sign_Letter_Technology)" d="M66.3 29.3L54 65.5h-.2l.2.6c1 2.9 5.8 15.7 9.8 12.7L81 29.3H66.3z" />
        <path fill="url(#VTGradient_Sign_Letter_Technology_shadow)" d="M63.2 59.5l-.2-.6-3.3-10L54 65.5h-.2l-1.4 4.7 3.4 9.8h7.6l3.9-11.3c-2-3.3-3.6-7.7-4.1-9.2z" />
        <path fill="url(#VTGradient_Sign_Letter_Technology_over)" d="M54.1 66.1l-.2-.6-12-36.1h-15l18.7 53.7c.9 2 2.8 3.4 5.1 3.5h10.4l2.7-7.8c-3.9 2.9-8.7-9.8-9.7-12.7z" />
        <path fill="url(#VTGradient_Sign_Circle_Technology)" d="M53.9 105.9c-28.4 0-51.5-23.1-51.5-51.5S25.5 2.9 53.9 2.9s51.5 23.1 51.5 51.5-23.1 51.5-51.5 51.5zm0-99.6c-26.5 0-48 21.6-48 48s21.6 48 48 48c26.5 0 48-21.6 48-48s-21.6-48-48-48z" />
    </g>
</svg>